<svg t="1763282102621" class="icon" viewBox="0 0 1024 1024" version="1.1" xmlns="http://www.w3.org/2000/svg" p-id="1057" width="200" height="200"><path d="M212.54 393.95h621.3c57.19 0 103.55 46.36 103.55 103.55v293.4c0 38.13-30.91 69.03-69.03 69.03H178.02c-38.13 0-69.03-30.91-69.03-69.03V497.5c0-57.19 46.36-103.55 103.55-103.55z" fill="#5392F1" p-id="1058"></path><path d="M309.78 100.56h424.97c48.9 0 91.14 34.21 101.29 82.05l40.29 189.84c11.87 55.94-23.85 110.92-79.79 122.79-7.07 1.5-14.27 2.26-21.5 2.26H270.61c-57.19 0-103.55-46.36-103.55-103.55 0-7.03 0.72-14.04 2.14-20.93l39.17-189.84c9.92-48.1 52.28-82.62 101.41-82.62zM212.54 790.9h120.81c9.53 0 17.26 7.73 17.26 17.26V911.7c0 9.53-7.73 17.26-17.26 17.26H212.54c-9.53 0-17.26-7.73-17.26-17.26V808.15c0-9.53 7.73-17.25 17.26-17.25zM713.03 790.9h120.81c9.53 0 17.26 7.73 17.26 17.26V911.7c0 9.53-7.73 17.26-17.26 17.26H713.03c-9.53 0-17.26-7.73-17.26-17.26V808.15c0-9.53 7.73-17.25 17.26-17.25z" fill="#6FDEFF" p-id="1059"></path><path d="M126.25 307.66h86.29c9.53 0 17.26 7.73 17.26 17.26v17.26c0 9.53-7.73 17.26-17.26 17.26h-86.29c-9.53 0-17.26-7.73-17.26-17.26v-17.26c0-9.53 7.73-17.26 17.26-17.26zM833.84 307.66h86.29c9.53 0 17.26 7.73 17.26 17.26v17.26c0 9.53-7.73 17.26-17.26 17.26h-86.29c-9.53 0-17.26-7.73-17.26-17.26v-17.26c0-9.53 7.73-17.26 17.26-17.26z" fill="#5392F1" p-id="1060"></path><path d="M195.28 566.54m-51.78 0a51.78 51.78 0 1 0 103.56 0 51.78 51.78 0 1 0-103.56 0Z" fill="#FFFFFF" p-id="1061"></path><path d="M851.1 566.54m-51.78 0a51.78 51.78 0 1 0 103.56 0 51.78 51.78 0 1 0-103.56 0Z" fill="#FFFFFF" p-id="1062"></path></svg>